<svg xmlns="http://www.w3.org/2000/svg" width="40" height="40" viewBox="0 0 40 40" fill="none">
    <mask id="mask0_1950_4255" style="mask-type:alpha" maskUnits="userSpaceOnUse" x="0" y="0" width="40" height="40">
        <rect width="40" height="40" fill="#D9D9D9"/>
    </mask>
    <g mask="url(#mask0_1950_4255)">
        <path d="M28.0417 21.3889H8.05556C7.65742 21.3889 7.32641 21.2569 7.06252 20.9931C6.79863 20.7292 6.66669 20.3982 6.66669 20C6.66669 19.6019 6.79863 19.2709 7.06252 19.007C7.32641 18.7431 7.65742 18.6111 8.05556 18.6111H28.0417L19.0139 9.58335C18.7361 9.30557 18.5996 8.98149 18.6042 8.6111C18.6088 8.24074 18.75 7.91667 19.0278 7.63889C19.3056 7.37039 19.6297 7.23382 20 7.22918C20.3704 7.22454 20.6945 7.36111 20.9722 7.63889L32.3611 19.0278C32.5093 19.1759 32.6135 19.3287 32.6736 19.4861C32.7338 19.6435 32.7639 19.8148 32.7639 20C32.7639 20.1852 32.7338 20.3565 32.6736 20.5139C32.6135 20.6713 32.5093 20.8241 32.3611 20.9722L20.9722 32.3611C20.7037 32.6296 20.382 32.7639 20.007 32.7639C19.632 32.7639 19.3056 32.6296 19.0278 32.3611C18.75 32.0834 18.6111 31.757 18.6111 31.382C18.6111 31.007 18.75 30.6806 19.0278 30.4028L28.0417 21.3889Z" fill="#D69A00"/>
    </g>
</svg>