<svg xmlns="http://www.w3.org/2000/svg" width="40" height="40" viewBox="0 0 40 40" fill="none">
    <mask id="mask0_1675_2415" style="mask-type:alpha" maskUnits="userSpaceOnUse" x="0" y="0" width="40" height="40">
        <rect width="40" height="40" fill="#D9D9D9"/>
    </mask>
    <g mask="url(#mask0_1675_2415)">
        <path d="M18.6111 11.9583L9.58335 20.9861C9.30557 21.2639 8.98149 21.4005 8.6111 21.3959C8.24073 21.3912 7.91667 21.25 7.63889 20.9722C7.37039 20.6945 7.23382 20.3704 7.22918 20C7.22454 19.6297 7.36111 19.3056 7.63889 19.0278L19.0278 7.6389C19.1759 7.49076 19.3287 7.38659 19.4861 7.3264C19.6435 7.26623 19.8148 7.23615 20 7.23615C20.1852 7.23615 20.3565 7.26623 20.5139 7.3264C20.6713 7.38659 20.8241 7.49076 20.9722 7.6389L32.3611 19.0278C32.6296 19.2963 32.7639 19.6181 32.7639 19.9931C32.7639 20.3681 32.6296 20.6945 32.3611 20.9722C32.0834 21.25 31.757 21.3889 31.382 21.3889C31.007 21.3889 30.6806 21.25 30.4028 20.9722L21.3889 11.9583V31.9445C21.3889 32.3426 21.2569 32.6736 20.9931 32.9375C20.7292 33.2014 20.3982 33.3334 20 33.3334C19.6019 33.3334 19.2709 33.2014 19.007 32.9375C18.7431 32.6736 18.6111 32.3426 18.6111 31.9445V11.9583Z" fill="#03947C"/>
    </g>
</svg>