<svg xmlns="http://www.w3.org/2000/svg" width="40" height="40" viewBox="0 0 40 40" fill="none">
    <mask id="mask0_1675_2508" style="mask-type:alpha" maskUnits="userSpaceOnUse" x="0" y="0" width="40" height="40">
        <rect width="40" height="40" fill="#D9D9D9"/>
    </mask>
    <g mask="url(#mask0_1675_2508)">
        <path d="M18.6111 28.0417V8.05553C18.6111 7.65739 18.7431 7.32638 19.007 7.06249C19.2709 6.7986 19.6019 6.66666 20 6.66666C20.3982 6.66666 20.7292 6.7986 20.9931 7.06249C21.257 7.32638 21.3889 7.65739 21.3889 8.05553V28.0417L30.4167 19.0139C30.6945 18.7361 31.0185 18.5995 31.3889 18.6042C31.7593 18.6088 32.0834 18.75 32.3611 19.0278C32.6296 19.3056 32.7662 19.6296 32.7709 20C32.7755 20.3704 32.6389 20.6944 32.3611 20.9722L20.9722 32.3611C20.8241 32.5093 20.6713 32.6134 20.5139 32.6736C20.3565 32.7338 20.1852 32.7639 20 32.7639C19.8148 32.7639 19.6435 32.7338 19.4861 32.6736C19.3287 32.6134 19.176 32.5093 19.0278 32.3611L7.63889 20.9722C7.37039 20.7037 7.23615 20.3819 7.23615 20.0069C7.23615 19.6319 7.37039 19.3056 7.63889 19.0278C7.91667 18.75 8.24306 18.6111 8.61806 18.6111C8.99306 18.6111 9.31945 18.75 9.59723 19.0278L18.6111 28.0417Z" fill="#C9164F"/>
    </g>
</svg>