<svg xmlns="http://www.w3.org/2000/svg" width="20" height="20" viewBox="0 0 20 20" fill="none">
    <mask id="mask0_6402_330" style="mask-type:alpha" maskUnits="userSpaceOnUse" x="0" y="0" width="20" height="20">
        <rect width="20" height="20" fill="#D9D9D9"/>
    </mask>
    <g mask="url(#mask0_6402_330)">
        <path d="M9.99595 12.75C9.89595 12.75 9.8022 12.7326 9.7147 12.6979C9.6272 12.6632 9.54873 12.6111 9.47928 12.5417L5.52799 8.59037C5.37052 8.43289 5.29525 8.25346 5.3022 8.05207C5.30914 7.85068 5.389 7.6736 5.54178 7.52082C5.69456 7.36805 5.87164 7.29166 6.07303 7.29166C6.27442 7.29166 6.4515 7.36805 6.60428 7.52082L10.0001 10.9375L13.4168 7.52082C13.5696 7.36805 13.7466 7.29513 13.948 7.30207C14.1494 7.30902 14.3265 7.38888 14.4793 7.54166C14.6321 7.69443 14.7084 7.87152 14.7084 8.07291C14.7084 8.2743 14.6297 8.45334 14.4722 8.61003L10.5209 12.5417C10.4459 12.6111 10.3647 12.6632 10.2772 12.6979C10.1897 12.7326 10.0959 12.75 9.99595 12.75Z" fill="#5F646E"/>
    </g>
</svg>