<svg xmlns="http://www.w3.org/2000/svg" width="20" height="20" viewBox="0 0 20 20" fill="none">
    <mask id="mask0_5674_4097" style="mask-type:alpha" maskUnits="userSpaceOnUse" x="0" y="0" width="20" height="20">
        <rect width="20" height="20" fill="#D9D9D9"/>
    </mask>
    <g mask="url(#mask0_5674_4097)">
        <path d="M7.33334 14.8958L10 13.3125L12.6875 14.8958L11.9792 11.8958L14.2917 9.91666L11.2292 9.64583L10 6.79166L8.77084 9.64583L5.70834 9.91666L8.04167 11.8958L7.33334 14.8958ZM10 15.0625L6.58334 17.1042C6.43056 17.1875 6.28125 17.2222 6.13542 17.2083C5.98959 17.1944 5.86112 17.1458 5.75 17.0625C5.63889 16.9792 5.55556 16.8646 5.5 16.7187C5.44445 16.5729 5.4375 16.4236 5.47917 16.2708L6.375 12.4583L3.35417 9.89583C3.22917 9.78472 3.15278 9.65625 3.125 9.51041C3.09723 9.36458 3.10417 9.22222 3.14584 9.08333C3.1875 8.94444 3.26389 8.82986 3.375 8.73958C3.48612 8.6493 3.625 8.59722 3.79167 8.58333L7.75 8.22916L9.3125 4.60416C9.38195 4.45138 9.47917 4.3368 9.60417 4.26041C9.72917 4.18402 9.86111 4.14583 10 4.14583C10.1389 4.14583 10.2708 4.18402 10.3958 4.26041C10.5208 4.3368 10.6181 4.45138 10.6875 4.60416L12.25 8.25L16.2083 8.58333C16.375 8.59722 16.5139 8.65277 16.625 8.75C16.7361 8.84722 16.8125 8.96527 16.8542 9.10416C16.8958 9.24305 16.8993 9.38194 16.8646 9.52083C16.8299 9.65972 16.75 9.78472 16.625 9.89583L13.625 12.4583L14.5208 16.2708C14.5625 16.4236 14.5556 16.5729 14.5 16.7187C14.4444 16.8646 14.3611 16.9792 14.25 17.0625C14.1389 17.1458 14.0104 17.1944 13.8646 17.2083C13.7188 17.2222 13.5694 17.1875 13.4167 17.1042L10 15.0625Z" fill="#5F646E"/>
    </g>
</svg>